<mxfile host="app.diagrams.net" agent="Mozilla/5.0 (Windows NT 10.0; Win64; x64) AppleWebKit/537.36 (KHTML, like Gecko) Chrome/136.0.0.0 Safari/537.36" version="27.0.9">
  <diagram name="Página-1" id="MAeIWaiWbPCHb0d-lwwG">
    <mxGraphModel dx="1019" dy="531" grid="1" gridSize="10" guides="1" tooltips="1" connect="1" arrows="1" fold="1" page="1" pageScale="1" pageWidth="827" pageHeight="1169" math="0" shadow="0">
      <root>
        <mxCell id="0" />
        <mxCell id="1" parent="0" />
        <mxCell id="1-frsWgXDtlFz3kJcchj-70" style="edgeStyle=orthogonalEdgeStyle;rounded=0;orthogonalLoop=1;jettySize=auto;html=1;exitX=1;exitY=0.3333333333333333;exitDx=0;exitDy=0;exitPerimeter=0;entryX=0;entryY=0.5;entryDx=0;entryDy=0;" edge="1" parent="1" source="1-frsWgXDtlFz3kJcchj-40" target="1-frsWgXDtlFz3kJcchj-61">
          <mxGeometry relative="1" as="geometry">
            <Array as="points" />
          </mxGeometry>
        </mxCell>
        <mxCell id="1-frsWgXDtlFz3kJcchj-40" value="Administrador" style="shape=umlActor;verticalLabelPosition=bottom;verticalAlign=top;html=1;outlineConnect=0;" vertex="1" parent="1">
          <mxGeometry x="160" y="465" width="30" height="60" as="geometry" />
        </mxCell>
        <mxCell id="1-frsWgXDtlFz3kJcchj-72" style="edgeStyle=orthogonalEdgeStyle;rounded=0;orthogonalLoop=1;jettySize=auto;html=1;exitX=0;exitY=0.3333333333333333;exitDx=0;exitDy=0;exitPerimeter=0;" edge="1" parent="1" source="1-frsWgXDtlFz3kJcchj-41" target="1-frsWgXDtlFz3kJcchj-71">
          <mxGeometry relative="1" as="geometry" />
        </mxCell>
        <mxCell id="1-frsWgXDtlFz3kJcchj-77" style="edgeStyle=orthogonalEdgeStyle;rounded=0;orthogonalLoop=1;jettySize=auto;html=1;exitX=0;exitY=1;exitDx=0;exitDy=0;exitPerimeter=0;entryX=1;entryY=0.5;entryDx=0;entryDy=0;" edge="1" parent="1" source="1-frsWgXDtlFz3kJcchj-41" target="1-frsWgXDtlFz3kJcchj-78">
          <mxGeometry relative="1" as="geometry">
            <mxPoint x="610" y="620" as="targetPoint" />
          </mxGeometry>
        </mxCell>
        <mxCell id="1-frsWgXDtlFz3kJcchj-41" value="Cliente" style="shape=umlActor;verticalLabelPosition=bottom;verticalAlign=top;html=1;outlineConnect=0;" vertex="1" parent="1">
          <mxGeometry x="670" y="465" width="30" height="60" as="geometry" />
        </mxCell>
        <mxCell id="1-frsWgXDtlFz3kJcchj-47" value="" style="endArrow=classic;html=1;rounded=0;entryX=0;entryY=0.667;entryDx=0;entryDy=0;entryPerimeter=0;exitX=0.5;exitY=0;exitDx=0;exitDy=0;exitPerimeter=0;" edge="1" parent="1" source="1-frsWgXDtlFz3kJcchj-40" target="1-frsWgXDtlFz3kJcchj-56">
          <mxGeometry width="50" height="50" relative="1" as="geometry">
            <mxPoint x="200" y="495" as="sourcePoint" />
            <mxPoint x="228.17000000000007" y="476.14999999999986" as="targetPoint" />
          </mxGeometry>
        </mxCell>
        <mxCell id="1-frsWgXDtlFz3kJcchj-51" value="Gestión BD" style="ellipse;whiteSpace=wrap;html=1;" vertex="1" parent="1">
          <mxGeometry x="220" y="550" width="80" height="40" as="geometry" />
        </mxCell>
        <mxCell id="1-frsWgXDtlFz3kJcchj-56" value="Visualizar Coches" style="ellipse;whiteSpace=wrap;html=1;" vertex="1" parent="1">
          <mxGeometry x="450" y="350" width="80" height="45" as="geometry" />
        </mxCell>
        <mxCell id="1-frsWgXDtlFz3kJcchj-59" value="" style="endArrow=classic;html=1;rounded=0;entryX=1;entryY=0.5;entryDx=0;entryDy=0;exitX=0.25;exitY=0.1;exitDx=0;exitDy=0;exitPerimeter=0;" edge="1" parent="1" source="1-frsWgXDtlFz3kJcchj-41" target="1-frsWgXDtlFz3kJcchj-56">
          <mxGeometry width="50" height="50" relative="1" as="geometry">
            <mxPoint x="390" y="390" as="sourcePoint" />
            <mxPoint x="490" y="375" as="targetPoint" />
          </mxGeometry>
        </mxCell>
        <mxCell id="1-frsWgXDtlFz3kJcchj-61" value="Conducir&lt;div&gt;Coche&lt;/div&gt;" style="ellipse;whiteSpace=wrap;html=1;" vertex="1" parent="1">
          <mxGeometry x="380" y="470" width="60" height="30" as="geometry" />
        </mxCell>
        <mxCell id="1-frsWgXDtlFz3kJcchj-68" value="" style="endArrow=classic;html=1;rounded=0;entryX=0;entryY=0.5;entryDx=0;entryDy=0;" edge="1" parent="1" source="1-frsWgXDtlFz3kJcchj-40" target="1-frsWgXDtlFz3kJcchj-51">
          <mxGeometry width="50" height="50" relative="1" as="geometry">
            <mxPoint x="350" y="540" as="sourcePoint" />
            <mxPoint x="400" y="490" as="targetPoint" />
          </mxGeometry>
        </mxCell>
        <mxCell id="1-frsWgXDtlFz3kJcchj-71" value="Comprar coche" style="ellipse;whiteSpace=wrap;html=1;" vertex="1" parent="1">
          <mxGeometry x="510" y="490" width="70" height="40" as="geometry" />
        </mxCell>
        <mxCell id="1-frsWgXDtlFz3kJcchj-74" value="include" style="html=1;verticalAlign=bottom;endArrow=open;dashed=1;endSize=8;curved=0;rounded=0;exitX=0.798;exitY=0.93;exitDx=0;exitDy=0;entryX=0.443;entryY=-0.061;entryDx=0;entryDy=0;exitPerimeter=0;entryPerimeter=0;" edge="1" parent="1" source="1-frsWgXDtlFz3kJcchj-56" target="1-frsWgXDtlFz3kJcchj-71">
          <mxGeometry relative="1" as="geometry">
            <mxPoint x="530" y="480" as="sourcePoint" />
            <mxPoint x="450" y="480" as="targetPoint" />
          </mxGeometry>
        </mxCell>
        <mxCell id="1-frsWgXDtlFz3kJcchj-78" value="Visualizar&lt;div&gt;su garaje&lt;/div&gt;" style="ellipse;whiteSpace=wrap;html=1;" vertex="1" parent="1">
          <mxGeometry x="505" y="590" width="80" height="30" as="geometry" />
        </mxCell>
        <mxCell id="1-frsWgXDtlFz3kJcchj-79" value="include" style="html=1;verticalAlign=bottom;endArrow=open;dashed=1;endSize=8;curved=0;rounded=0;exitX=0.5;exitY=1;exitDx=0;exitDy=0;entryX=0.5;entryY=0;entryDx=0;entryDy=0;" edge="1" parent="1" source="1-frsWgXDtlFz3kJcchj-71" target="1-frsWgXDtlFz3kJcchj-78">
          <mxGeometry relative="1" as="geometry">
            <mxPoint x="560" y="550" as="sourcePoint" />
            <mxPoint x="480" y="550" as="targetPoint" />
          </mxGeometry>
        </mxCell>
        <mxCell id="1-frsWgXDtlFz3kJcchj-80" value="Editar Coche" style="ellipse;whiteSpace=wrap;html=1;" vertex="1" parent="1">
          <mxGeometry x="40" y="675" width="90" height="35" as="geometry" />
        </mxCell>
        <mxCell id="1-frsWgXDtlFz3kJcchj-81" value="Eliminar Coche" style="ellipse;whiteSpace=wrap;html=1;" vertex="1" parent="1">
          <mxGeometry x="390" y="680" width="90" height="30" as="geometry" />
        </mxCell>
        <mxCell id="1-frsWgXDtlFz3kJcchj-82" value="Añadir Coche" style="ellipse;whiteSpace=wrap;html=1;" vertex="1" parent="1">
          <mxGeometry x="215" y="710" width="90" height="30" as="geometry" />
        </mxCell>
        <mxCell id="1-frsWgXDtlFz3kJcchj-83" value="include" style="html=1;verticalAlign=bottom;endArrow=open;dashed=1;endSize=8;curved=0;rounded=0;exitX=0;exitY=0;exitDx=0;exitDy=0;entryX=1;entryY=1;entryDx=0;entryDy=0;" edge="1" parent="1" source="1-frsWgXDtlFz3kJcchj-81" target="1-frsWgXDtlFz3kJcchj-51">
          <mxGeometry relative="1" as="geometry">
            <mxPoint x="320" y="724.64" as="sourcePoint" />
            <mxPoint x="380" y="620" as="targetPoint" />
          </mxGeometry>
        </mxCell>
        <mxCell id="1-frsWgXDtlFz3kJcchj-84" value="include" style="html=1;verticalAlign=bottom;endArrow=open;dashed=1;endSize=8;curved=0;rounded=0;exitX=0.5;exitY=0;exitDx=0;exitDy=0;entryX=0.5;entryY=1;entryDx=0;entryDy=0;" edge="1" parent="1" source="1-frsWgXDtlFz3kJcchj-82" target="1-frsWgXDtlFz3kJcchj-51">
          <mxGeometry relative="1" as="geometry">
            <mxPoint x="420" y="510" as="sourcePoint" />
            <mxPoint x="380" y="620" as="targetPoint" />
          </mxGeometry>
        </mxCell>
        <mxCell id="1-frsWgXDtlFz3kJcchj-85" value="include" style="html=1;verticalAlign=bottom;endArrow=open;dashed=1;endSize=8;curved=0;rounded=0;exitX=1;exitY=0.5;exitDx=0;exitDy=0;entryX=0;entryY=1;entryDx=0;entryDy=0;" edge="1" parent="1" source="1-frsWgXDtlFz3kJcchj-80" target="1-frsWgXDtlFz3kJcchj-51">
          <mxGeometry relative="1" as="geometry">
            <mxPoint x="420" y="510" as="sourcePoint" />
            <mxPoint x="380" y="619" as="targetPoint" />
          </mxGeometry>
        </mxCell>
      </root>
    </mxGraphModel>
  </diagram>
</mxfile>
